HIERARCHY
ROOT Hips
{
	OFFSET 0.000000 0.000000 0.000000
	CHANNELS 6 Xposition Yposition Zposition Zrotation Yrotation Xrotation 
	JOINT Spine
	{
		OFFSET 0.000000 0.070852 0.000000
		CHANNELS 3 Zrotation Yrotation Xrotation
		JOINT Spine1
		{
			OFFSET 0.000000 0.152636 0.000000
			CHANNELS 3 Zrotation Yrotation Xrotation
			JOINT Neck
			{
				OFFSET 0.000000 0.169916 0.000000
				CHANNELS 3 Zrotation Yrotation Xrotation
				JOINT Head
				{
					OFFSET 0.000000 0.133927 0.017281
					CHANNELS 3 Zrotation Yrotation Xrotation
					End Site
					{
						OFFSET 0.000000 0.172810 0.000000
					}
				}
			}
			JOINT LeftShoulder
			{
				OFFSET 0.034198 0.131853 -0.003205
				CHANNELS 3 Zrotation Yrotation Xrotation
				JOINT LeftArm
				{
					OFFSET 0.115879 0.000000 0.000000
					CHANNELS 3 Zrotation Yrotation Xrotation
					JOINT LeftForeArm
					{
						OFFSET 0.252722 0.000000 0.000000
						CHANNELS 3 Zrotation Yrotation Xrotation
						JOINT LeftHand
						{
							OFFSET 0.231372 0.000000 0.000000
							CHANNELS 3 Zrotation Yrotation Xrotation
							End Site
							{
								OFFSET 0.129607 0.000000 0.000000
							}
						}
					}
				}
			}
			JOINT RightShoulder
			{
				OFFSET -0.034810 0.131853 -0.003205
				CHANNELS 3 Zrotation Yrotation Xrotation
				JOINT RightArm
				{
					OFFSET -0.115879 0.000000 0.000000
					CHANNELS 3 Zrotation Yrotation Xrotation
					JOINT RightForeArm
					{
						OFFSET -0.252722 0.000000 0.000000
						CHANNELS 3 Zrotation Yrotation Xrotation
						JOINT RightHand
						{
							OFFSET -0.231372 0.000000 0.000000
							CHANNELS 3 Zrotation Yrotation Xrotation
							End Site
							{
								OFFSET -0.129607 0.000000 0.000000
							}
						}
					}
				}
			}
		}
	}
	JOINT LeftUpLeg
	{
		OFFSET 0.086405 0.000000 0.000000
		CHANNELS 3 Zrotation Yrotation Xrotation
		JOINT LeftLeg
		{
			OFFSET 0.000000 -0.403038 0.000000
			CHANNELS 3 Zrotation Yrotation Xrotation
			JOINT LeftFoot
			{
				OFFSET 0.000000 -0.374775 0.000000
				CHANNELS 3 Zrotation Yrotation Xrotation
				JOINT LeftToeBase
				{
					OFFSET 0.000000 -0.056163 0.129607
					CHANNELS 3 Zrotation Yrotation Xrotation
					End Site
					{
						OFFSET 0.000000 0.000000 0.034562
					}
				}
			}
		}
	}
	JOINT RightUpLeg
	{
		OFFSET -0.086405 0.000000 0.000000
		CHANNELS 3 Zrotation Yrotation Xrotation
		JOINT RightLeg
		{
			OFFSET 0.000000 -0.403038 0.000000
			CHANNELS 3 Zrotation Yrotation Xrotation
			JOINT RightFoot
			{
				OFFSET 0.000000 -0.374775 0.000000
				CHANNELS 3 Zrotation Yrotation Xrotation
				JOINT RightToeBase
				{
					OFFSET 0.000000 -0.056163 0.129607
					CHANNELS 3 Zrotation Yrotation Xrotation
					End Site
					{
						OFFSET 0.000000 0.000000 0.034562
					}
				}
			}
		}
	}
}
MOTION
Frames: 9
Frame Time: 0.010000
-0.139694 0.756137 0.266682 14.128449 10.720188 14.787730 0.340198 -3.670177 1.165629 -0.719521 -1.221203 0.212325 -1.696093 -1.445528 -3.148811 1.527141 -1.823705 -3.266415 2.884142 4.831008 6.684252 -90.806866 -38.857076 31.357788 -0.268207 -9.803515 -5.098903 3.732868 -9.414609 -5.429440 -3.783186 0.060891 5.159168 82.543328 34.774095 22.571373 0.538552 15.411477 -5.171100 2.186354 4.633283 -5.155458 12.377939 16.503749 -18.380480 -2.590792 16.310080 34.699359 7.950040 18.823016 -16.516027 0.000000 -0.000001 -0.000002 6.620170 -19.506711 -39.219073 -13.778584 6.782878 62.135085 -3.340373 9.331130 -27.803366 0.000000 0.000000 0.000000 
-0.134309 0.755259 0.266548 14.221003 11.193227 14.922807 0.671116 -3.797698 1.098746 -1.036488 -1.259723 0.493404 -2.126597 -1.635100 -3.568760 1.753497 -2.075771 -3.526676 2.440590 4.979328 6.504736 -88.960188 -37.745347 25.776787 0.614007 -6.036945 -3.975347 3.114755 -8.865865 -4.184544 -4.020247 -0.372874 4.730891 80.809723 33.449864 16.763892 0.178247 11.282281 -2.472792 2.410597 3.913006 -2.407996 13.116081 16.961079 -17.542035 -3.006434 15.796940 28.228808 7.480768 17.714736 -13.827032 0.000000 0.000002 0.000001 6.241975 -19.818868 -39.734752 -13.201028 7.161636 63.118885 -2.840840 8.680388 -27.245549 0.000000 0.000000 -0.000003 
-0.128923 0.754836 0.266715 14.275792 11.748562 15.076666 1.133462 -3.945572 1.067150 -1.644395 -1.306260 0.417105 -2.174922 -1.819445 -3.700512 1.783346 -2.269152 -3.671855 2.448772 5.299122 6.559237 -86.690680 -36.814020 18.602732 0.628476 -2.953812 -2.964294 4.280816 -8.221963 -3.255938 -4.038608 -0.693502 4.414538 78.267862 31.931401 10.357786 0.007159 7.449869 0.794408 1.455428 4.015420 0.845092 13.828821 17.562153 -16.855490 -3.421906 14.761468 22.059491 6.898946 16.769803 -10.148341 -0.000003 -0.000003 -0.000002 5.754504 -20.116413 -39.992404 -13.305308 6.908604 63.707053 -2.646968 8.790787 -27.000643 0.000000 0.000000 -0.000006 
-0.123692 0.754979 0.267092 14.284356 12.324003 15.249265 1.503532 -4.014451 1.056383 -2.139727 -1.330306 0.207269 -2.047282 -2.058520 -3.750929 1.633726 -2.485915 -3.798424 2.630379 5.543152 6.547978 -84.335768 -35.620543 12.372917 1.170580 -0.755211 -2.360707 5.561053 -7.194973 -2.702882 -4.014263 -1.154327 4.112712 75.196278 30.348375 4.160161 -0.138859 4.098380 3.495787 1.040553 3.834144 3.535609 14.657762 18.242587 -16.270656 -3.968073 13.267576 16.133861 6.227127 16.170403 -5.313389 -0.000002 -0.000001 0.000000 5.005087 -20.106286 -39.950162 -13.927808 5.977896 63.968526 -2.362558 9.766716 -27.046116 0.000000 0.000000 -0.000002 
-0.118522 0.755714 0.267632 14.306661 12.880818 15.420612 1.656096 -4.042818 1.047923 -2.319035 -1.344358 -0.054000 -1.997760 -2.290506 -3.740139 1.386538 -2.695449 -3.899510 2.738975 5.798061 6.539037 -81.513294 -34.257309 7.546355 1.748598 0.376808 -2.044391 6.095937 -5.854803 -2.362171 -4.119539 -1.621990 3.873446 71.848713 28.536066 -1.410086 -0.332410 1.487095 5.224626 -0.641403 3.086261 5.211667 15.612619 18.623438 -15.748873 -4.346488 12.175415 10.589904 5.318351 15.277444 0.040194 0.000002 -0.000003 -0.000001 4.533292 -20.421043 -39.874877 -14.518347 5.437770 63.928877 -2.153725 10.564463 -27.013466 0.000000 0.000000 -0.000006 
-0.113227 0.756982 0.268582 14.385195 13.404815 15.586061 1.650949 -4.037952 1.027529 -2.438960 -1.350314 -0.405192 -1.939820 -2.519439 -3.673244 1.261941 -2.915895 -3.858348 2.968888 6.031019 6.538367 -77.687603 -32.713522 0.958964 0.912013 0.647963 -0.251071 6.809162 -4.754372 -0.539434 -4.180612 -2.081291 3.755781 68.291496 26.319707 -6.398348 -0.544654 -0.051516 6.233120 -1.237124 1.914047 6.212225 16.732497 18.519708 -15.210380 -4.627939 11.454272 5.514838 4.253275 14.332387 5.539073 0.000002 0.000001 0.000000 3.769998 -20.492598 -39.535160 -14.858168 4.672524 63.795954 -1.955316 10.968327 -27.131427 0.000000 0.000000 0.000005 
-0.107891 0.759005 0.269560 14.546609 13.794209 15.737514 1.483807 -3.945338 1.125120 -2.507333 -1.330315 -0.893284 -1.944293 -2.714735 -3.552682 1.244036 -3.118209 -3.826868 3.200048 6.223414 6.492628 -73.685857 -30.893301 -3.770457 0.070002 0.331607 1.234991 7.274449 -4.169100 0.969692 -4.328416 -2.535205 3.584558 64.727066 23.646472 -10.903657 -0.666764 -0.706042 6.893585 -2.248726 0.407000 6.881498 17.899540 18.065598 -14.642612 -4.800318 11.502796 0.769202 2.977277 13.090084 10.622135 0.000000 -0.000001 0.000000 3.056090 -20.610325 -39.124198 -14.840787 4.324434 63.430321 -1.742031 10.918839 -27.138295 0.000000 0.000000 0.000000 
-0.102506 0.761520 0.270790 14.740240 14.043058 15.851563 1.166661 -3.750251 1.260162 -2.508244 -1.276696 -1.393330 -1.916121 -2.935028 -3.395633 1.215799 -3.340791 -3.882618 3.452122 6.466666 6.438793 -69.651913 -29.104836 -7.078490 -0.440250 -0.043825 2.530041 6.119549 -4.449169 2.291929 -4.556311 -2.978383 3.375037 61.065258 20.668060 -15.560373 -0.276828 -0.774366 7.712142 -3.060781 -0.937976 7.735347 19.073262 17.382813 -14.054249 -4.850391 12.147094 -3.440022 1.633974 11.881800 15.264416 0.000000 0.000004 -0.000001 2.373513 -20.702365 -38.633954 -14.445695 4.285989 62.942078 -1.539902 10.305157 -27.025247 0.000000 0.000000 0.000000 
-0.097153 0.764624 0.271927 14.901985 14.212908 15.982412 0.813780 -3.508153 1.388463 -2.474138 -1.207189 -1.891874 -1.896053 -3.129589 -3.315260 1.243371 -3.543145 -3.872607 3.718260 6.716327 6.251707 -65.657208 -27.231090 -9.076507 -0.936716 -0.601936 3.363120 5.138279 -5.190276 3.125162 -4.838619 -3.369877 3.050826 57.420123 17.471914 -19.902505 0.478880 -0.439047 8.246662 -4.491090 -2.278158 8.337830 20.347490 16.325583 -13.553000 -4.859540 13.265894 -7.056442 0.486093 10.869271 18.661906 0.000002 0.000002 -0.000003 1.794028 -20.685716 -38.148037 -14.108268 4.358932 62.279448 -1.280717 9.656867 -26.673914 0.000000 0.000000 0.000001 
